<?xml version="1.0" encoding="UTF-8" standalone="no"?>
<!-- Created with Inkscape (http://www.inkscape.org/) -->

<svg
   width="100mm"
   height="100mm"
   viewBox="0 0 100 100"
   version="1.1"
   id="svg5"
   sodipodi:docname="hy3.svg"
   xml:space="preserve"
   inkscape:version="1.2.2 (b0a8486541, 2022-12-01)"
   xmlns:inkscape="http://www.inkscape.org/namespaces/inkscape"
   xmlns:sodipodi="http://sodipodi.sourceforge.net/DTD/sodipodi-0.dtd"
   xmlns:xlink="http://www.w3.org/1999/xlink"
   xmlns="http://www.w3.org/2000/svg"
   xmlns:svg="http://www.w3.org/2000/svg"><sodipodi:namedview
     id="namedview7"
     pagecolor="#505050"
     bordercolor="#eeeeee"
     borderopacity="1"
     inkscape:showpageshadow="0"
     inkscape:pageopacity="0"
     inkscape:pagecheckerboard="0"
     inkscape:deskcolor="#505050"
     inkscape:document-units="mm"
     showgrid="true"
     showguides="true"
     inkscape:zoom="1.3202441"
     inkscape:cx="187.08662"
     inkscape:cy="183.29944"
     inkscape:window-width="1761"
     inkscape:window-height="1413"
     inkscape:window-x="0"
     inkscape:window-y="0"
     inkscape:window-maximized="1"
     inkscape:current-layer="g1739"><inkscape:grid
       type="xygrid"
       id="grid9"
       spacingx="2.5"
       spacingy="2.5"
       units="mm"
       visible="true" /><sodipodi:guide
       position="40,60"
       orientation="0.70710678,0.70710678"
       id="guide65"
       inkscape:locked="false"
       inkscape:label=""
       inkscape:color="rgb(0,134,229)" /><sodipodi:guide
       position="5,60"
       orientation="0.70710678,0.70710678"
       id="guide69"
       inkscape:locked="false"
       inkscape:label=""
       inkscape:color="rgb(0,134,229)" /><sodipodi:guide
       position="40,94.999999"
       orientation="0.70710678,0.70710678"
       id="guide71"
       inkscape:locked="false"
       inkscape:label=""
       inkscape:color="rgb(0,134,229)" /><sodipodi:guide
       position="17.5,82.499999"
       orientation="0.70710678,-0.70710678"
       id="guide75"
       inkscape:locked="false"
       inkscape:label=""
       inkscape:color="rgb(0,134,229)" /></sodipodi:namedview><defs
     id="defs2"><linearGradient
       inkscape:collect="always"
       id="linearGradient1833"><stop
         style="stop-color:#009ff9;stop-opacity:1;"
         offset="0"
         id="stop1829" /><stop
         style="stop-color:#00e7cd;stop-opacity:1;"
         offset="1"
         id="stop1831" /></linearGradient><linearGradient
       inkscape:collect="always"
       xlink:href="#linearGradient1833"
       id="linearGradient1835"
       x1="0"
       y1="62.5"
       x2="100"
       y2="25"
       gradientUnits="userSpaceOnUse" /><linearGradient
       inkscape:collect="always"
       xlink:href="#linearGradient1833"
       id="linearGradient882"
       gradientUnits="userSpaceOnUse"
       x1="0"
       y1="62.5"
       x2="100"
       y2="25" /><linearGradient
       inkscape:collect="always"
       xlink:href="#linearGradient1833"
       id="linearGradient884"
       gradientUnits="userSpaceOnUse"
       x1="0"
       y1="62.5"
       x2="100"
       y2="25" /><linearGradient
       inkscape:collect="always"
       xlink:href="#linearGradient1833"
       id="linearGradient886"
       gradientUnits="userSpaceOnUse"
       x1="0"
       y1="62.5"
       x2="100"
       y2="25" /><linearGradient
       inkscape:collect="always"
       xlink:href="#linearGradient1833"
       id="linearGradient888"
       gradientUnits="userSpaceOnUse"
       x1="0"
       y1="62.5"
       x2="100"
       y2="25" /></defs><g
     inkscape:groupmode="layer"
     id="g1741"
     inkscape:label="logo"
     style="fill:url(#linearGradient1835);fill-opacity:1"><g
       inkscape:label="i3"
       inkscape:groupmode="layer"
       id="g1731"
       transform="translate(3.0000001,3.0000001)"
       style="fill-opacity:1;fill:url(#linearGradient1835)"><g
         id="g1727"
         inkscape:label="inner"
         style="fill-opacity:1;fill:url(#linearGradient1835)"><path
           style="stroke-width:13;stroke-linecap:round;-inkscape-stroke:none;fill-opacity:1;fill:url(#linearGradient1835)"
           d="m 44.999999,44.999999 20,20"
           id="path1723" /><path
           style="stroke-linecap:round;-inkscape-stroke:none;fill-opacity:1;fill:url(#linearGradient1835)"
           d="m 45,38.5 a 6.5,6.5 0 0 0 -4.595703,1.904297 6.5,6.5 0 0 0 0,9.191406 l 20,20 a 6.5,6.5 0 0 0 9.191406,0 6.5,6.5 0 0 0 0,-9.191406 l -20,-20 A 6.5,6.5 0 0 0 45,38.5 Z"
           id="path1725" /></g><path
         style="stroke-linecap:round;stroke-miterlimit:3.9;-inkscape-stroke:none;fill-opacity:1;fill:url(#linearGradient1835)"
         d="m 62.5,21 a 6.5,6.5 0 0 0 -4.595703,1.904297 6.5,6.5 0 0 0 0,9.191406 l 20,20 c 0,0 3.352817,3.478374 4.992187,8.396484 1.639371,4.918111 2.22574,10.194182 -4.992187,17.41211 -7.217928,7.217927 -12.493998,6.631558 -17.41211,4.992187 -4.918111,-1.63937 -8.396484,-4.992187 -8.396484,-4.992187 l -20,-20 a 6.5,6.5 0 0 0 -9.191406,0 6.5,6.5 0 0 0 0,9.191406 l 20,20 c 0,0 5.271639,5.397187 13.478515,8.132813 8.206877,2.735625 20.430837,2.149241 30.712891,-8.132813 C 97.377757,76.813649 97.964142,64.589688 95.228516,56.382812 92.492889,48.175937 87.095703,42.904297 87.095703,42.904297 l -20,-20 A 6.5,6.5 0 0 0 62.5,21 Z"
         id="path1729" /></g><g
       inkscape:groupmode="layer"
       id="g1739"
       inkscape:label="hyprland"
       style="fill:url(#linearGradient888);fill-opacity:1"
       transform="translate(2.5,2.5)"><path
         d="m 1.807378,35.000035 2.191099,2.191098 0.630899,0.630901 c 0.08347,0.08347 0.18178,0.225239 0.292093,0.270611 0.09905,0.0406 0.215786,0.04969 0.319879,0.07229 0.259866,0.05628 0.521263,0.103675 0.781808,0.156022 0.859731,0.172563 1.725088,0.315621 2.59215,0.445898 1.458315,0.219022 2.927802,0.350315 4.382627,0.59347 2.17703,0.363792 4.352779,1.013617 6.160824,2.313695 0.300116,0.215693 0.611972,0.434982 0.884713,0.684021 0.207102,0.188992 0.398866,0.398116 0.597168,0.596417 0.143064,0.143065 0.304712,0.279986 0.43419,0.435439 0.542354,0.653629 0.967321,1.412358 1.303574,2.191948 0.421001,0.976188 0.629969,2.024936 0.704395,3.081014 0.158063,2.241573 -0.715136,4.469325 -2.152826,6.158351 -0.167668,0.196891 -0.370666,0.371915 -0.553544,0.554793 -0.182879,0.18288 -0.35809,0.38569 -0.554794,0.553545 -1.037907,0.883435 -2.266806,1.552699 -3.590499,1.900036 C 14.142856,58.377615 11.86709,58.055937 9.952143,57.087335 9.197967,56.705898 8.532698,56.218481 7.93761,55.623393 7.743136,55.428919 7.52981,55.242568 7.34996,55.034493 6.855831,54.46206 6.418019,53.830074 6.039816,53.173086 4.77324,50.972777 4.368186,48.37645 4.063224,45.89369 3.890155,44.484736 3.710343,43.077742 3.446049,41.682431 3.374179,41.302774 3.302136,40.923473 3.227029,40.544502 3.190539,40.359669 3.175529,40.136807 3.102209,39.963058 3.055899,39.853681 2.913899,39.755265 2.830599,39.671964 L 2.191176,39.032542 0.0086,36.849966 0,36.858566 c 0.149003,0.416712 0.200276,0.89887 0.287053,1.332822 0.17415,0.871034 0.338302,1.743335 0.483921,2.619431 0.67481,4.059158 0.743697,8.347414 2.47927,12.150796 0.368561,0.80764 0.804999,1.576403 1.30639,2.308498 0.356122,0.519988 0.767826,0.989327 1.180378,1.462588 0.240228,0.27557 0.492006,0.558695 0.768814,0.799909 2.122385,1.848882 4.977891,2.930875 7.807987,2.830528 1.339735,-0.04757 2.658059,-0.322528 3.893601,-0.846686 1.211838,-0.514267 2.266804,-1.259589 3.252459,-2.118721 2.388721,-2.082309 3.903991,-5.148567 3.903997,-8.338884 -6e-6,-1.474088 -0.285698,-2.969065 -0.850951,-4.33266 C 24.018859,43.534195 23.353854,42.451778 22.507,41.480272 22.210847,41.14041 21.855617,40.855368 21.527395,40.550124 19.903004,39.03963 17.810791,38.050148 15.701625,37.423932 12.888576,36.588672 9.961704,36.409809 7.075251,35.972947 5.923346,35.798597 4.77434,35.603617 3.631902,35.37513 3.253949,35.2995 2.874627,35.228631 2.498412,35.144513 2.274938,35.094433 2.035841,35.015629 1.807403,35 Z"
         id="path1733"
         inkscape:label="3"
         style="fill:url(#linearGradient882);fill-opacity:1" /><path
         d="m 19.307378,17.500035 2.191099,2.191098 0.630899,0.630901 c 0.08347,0.08347 0.18178,0.225239 0.292093,0.270611 0.09905,0.0406 0.215786,0.04969 0.319879,0.07229 0.259866,0.05628 0.521263,0.103675 0.781808,0.156022 0.859731,0.172563 1.725088,0.315621 2.59215,0.445898 1.458315,0.219022 2.927802,0.350315 4.382627,0.59347 2.17703,0.363792 4.352779,1.013617 6.160824,2.313695 0.300116,0.215693 0.611972,0.434982 0.884713,0.684021 0.207102,0.188992 0.398866,0.398116 0.597168,0.596417 0.143064,0.143065 0.304712,0.279986 0.43419,0.435439 0.542354,0.653629 0.967321,1.412358 1.303574,2.191948 0.421001,0.976188 0.629969,2.024936 0.704395,3.081014 0.158063,2.241573 -0.715136,4.469325 -2.152826,6.158351 -0.167668,0.196891 -0.370666,0.371915 -0.553544,0.554793 -0.182879,0.18288 -0.35809,0.38569 -0.554794,0.553545 -1.037907,0.883435 -2.266806,1.552699 -3.590499,1.900036 -2.088278,0.548031 -4.364044,0.226353 -6.278991,-0.742249 -0.754176,-0.381437 -1.419445,-0.868854 -2.014533,-1.463942 -0.194474,-0.194474 -0.4078,-0.380825 -0.58765,-0.5889 -0.494129,-0.572433 -0.931941,-1.204419 -1.310144,-1.861407 -1.266576,-2.200309 -1.67163,-4.796636 -1.976592,-7.279396 -0.173069,-1.408954 -0.352881,-2.815948 -0.617175,-4.211259 -0.07187,-0.379657 -0.143913,-0.758958 -0.21902,-1.137929 -0.03649,-0.184833 -0.0515,-0.407695 -0.12482,-0.581444 -0.04631,-0.109377 -0.18831,-0.207793 -0.27161,-0.291094 L 19.691176,21.532542 17.5086,19.349966 17.5,19.358566 c 0.149003,0.416712 0.200276,0.89887 0.287053,1.332822 0.17415,0.871034 0.338302,1.743335 0.483921,2.619431 0.67481,4.059158 0.743697,8.347414 2.47927,12.150796 0.368561,0.80764 0.804999,1.576403 1.30639,2.308498 0.356122,0.519988 0.767826,0.989327 1.180378,1.462588 0.240228,0.27557 0.492006,0.558695 0.768814,0.799909 2.122385,1.848882 4.977891,2.930875 7.807987,2.830528 1.339735,-0.04757 2.658059,-0.322528 3.893601,-0.846686 1.211838,-0.514267 2.266804,-1.259589 3.252459,-2.118721 2.388721,-2.082309 3.903991,-5.148567 3.903997,-8.338884 -6e-6,-1.474088 -0.285698,-2.969065 -0.850951,-4.33266 C 41.518859,26.034195 40.853854,24.951778 40.007,23.980272 39.710847,23.64041 39.355617,23.355368 39.027395,23.050124 37.403004,21.53963 35.310791,20.550148 33.201625,19.923932 30.388576,19.088672 27.461704,18.909809 24.575251,18.472947 23.423346,18.298597 22.27434,18.103617 21.131902,17.87513 20.753949,17.7995 20.374627,17.728631 19.998412,17.644513 19.774938,17.594433 19.535841,17.515629 19.307403,17.5 Z"
         id="path1735"
         inkscape:label="2"
         style="fill:url(#linearGradient884);fill-opacity:1" /><path
         d="m 36.807378,3.5e-5 2.191099,2.191098 0.630899,0.630901 c 0.08347,0.08347 0.18178,0.225239 0.292093,0.270611 0.09905,0.0406 0.215786,0.04969 0.319879,0.07229 0.259866,0.05628 0.521263,0.103675 0.781808,0.156022 0.859731,0.172563 1.725088,0.315621 2.59215,0.4458979 1.458315,0.219022 2.927802,0.350315 4.382627,0.59347 2.17703,0.363792 4.352779,1.013617 6.160824,2.313695 0.300116,0.215693 0.611972,0.434982 0.884713,0.684021 0.207102,0.188992 0.398866,0.398116 0.597168,0.596417 0.143064,0.143065 0.304712,0.279986 0.43419,0.435439 0.542354,0.653629 0.967321,1.4123581 1.303574,2.1919481 0.421001,0.976188 0.629969,2.024936 0.704395,3.081014 0.158063,2.241573 -0.715136,4.469325 -2.152826,6.158351 -0.167668,0.196891 -0.370666,0.371915 -0.553544,0.554793 -0.182879,0.18288 -0.35809,0.38569 -0.554794,0.553545 -1.037907,0.883435 -2.266806,1.552699 -3.590499,1.900036 -2.088278,0.548031 -4.364044,0.226353 -6.278991,-0.742249 -0.754176,-0.381437 -1.419445,-0.868854 -2.014533,-1.463942 -0.194474,-0.194474 -0.4078,-0.380825 -0.58765,-0.5889 C 41.855831,19.46206 41.418019,18.830074 41.039816,18.173086 39.77324,15.972777 39.368186,13.37645 39.063224,10.89369 38.890155,9.4847359 38.710343,8.0777419 38.446049,6.6824309 c -0.07187,-0.379657 -0.143913,-0.758958 -0.21902,-1.137929 -0.03649,-0.184833 -0.0515,-0.407695 -0.12482,-0.581444 -0.04631,-0.109377 -0.18831,-0.207793 -0.27161,-0.291094 L 37.191176,4.0325419 35.0086,1.849966 35,1.858566 c 0.149003,0.416712 0.200276,0.89887 0.287053,1.332822 0.17415,0.8710339 0.338302,1.7433349 0.483921,2.6194309 0.67481,4.0591581 0.743697,8.3474141 2.47927,12.1507961 0.368561,0.80764 0.804999,1.576403 1.30639,2.308498 0.356122,0.519988 0.767826,0.989327 1.180378,1.462588 0.240228,0.27557 0.492006,0.558695 0.768814,0.799909 2.122385,1.848882 4.977891,2.930875 7.807987,2.830528 1.339735,-0.04757 2.658059,-0.322528 3.893601,-0.846686 1.211838,-0.514267 2.266804,-1.259589 3.252459,-2.118721 2.388721,-2.082309 3.903991,-5.148567 3.903997,-8.338884 -6e-6,-1.474088 -0.285698,-2.969065 -0.850951,-4.33266 C 59.018859,8.5341949 58.353854,7.4517779 57.507,6.4802719 57.210847,6.1404099 56.855617,5.8553679 56.527395,5.5501239 54.903004,4.0396299 52.810791,3.050148 50.701625,2.423932 47.888576,1.5886719 44.961704,1.4098089 42.075251,0.97294691 40.923346,0.79859691 39.77434,0.60361695 38.631902,0.37513 38.253949,0.2995 37.874627,0.228631 37.498412,0.144513 37.274938,0.094433 37.035841,0.015629 36.807403,0 Z"
         id="path1737"
         inkscape:label="1"
         style="fill:url(#linearGradient886);fill-opacity:1" /></g></g></svg>
